<svg width="48" height="48" viewBox="0 0 48 48" fill="none" xmlns="http://www.w3.org/2000/svg">
<path d="M0 24C0 10.7452 10.7452 0 24 0C37.2548 0 48 10.7452 48 24C48 37.2548 37.2548 48 24 48C10.7452 48 0 37.2548 0 24Z" fill="#EFF6FF"/>
<path d="M18.3465 17.274C19.8458 15.942 21.7579 15.2063 23.7375 15.2C27.7725 15.2 31.122 18.2909 31.4865 22.2766C33.8745 22.6243 35.7375 24.6844 35.7375 27.2128C35.7375 29.9884 33.4906 32.2 30.768 32.2H17.409C14.2995 32.2 11.7375 29.6747 11.7375 26.5096C11.7375 23.785 13.6365 21.5286 16.1505 20.9568C16.365 19.623 17.1975 18.294 18.3465 17.274ZM19.326 18.4439C18.1905 19.453 17.5965 20.6693 17.5965 21.6213V22.3137L16.929 22.3894C14.8335 22.6259 13.2375 24.3985 13.2375 26.5096C13.2375 28.7768 15.0825 30.6545 17.409 30.6545H30.768C32.7076 30.6545 34.2375 29.0905 34.2375 27.2128C34.2375 25.3335 32.7076 23.7695 30.768 23.7695H30.018V22.9968C30.0196 19.5659 27.2295 16.7454 23.7375 16.7454C22.1174 16.7521 20.5528 17.355 19.326 18.4454V18.4439Z" fill="#3B82F6"/>
</svg>
