<svg width="32" height="32" viewBox="0 0 32 32" fill="none" xmlns="http://www.w3.org/2000/svg">
<path d="M14.0001 27.3333L27.3334 14C27.9565 13.3894 28.4523 12.6614 28.7922 11.858C29.1321 11.0546 29.3094 10.1918 29.3138 9.31949C29.3182 8.44717 29.1497 7.58263 28.8179 6.77585C28.4861 5.96908 27.9976 5.23609 27.3808 4.61925C26.764 4.00242 26.031 3.51399 25.2242 3.18219C24.4174 2.8504 23.5529 2.68184 22.6806 2.68624C21.8082 2.69065 20.9454 2.86794 20.1421 3.20786C19.3387 3.54779 18.6107 4.0436 18.0001 4.66663L4.66675 18C4.04372 18.6105 3.54791 19.3386 3.20798 20.1419C2.86806 20.9453 2.69077 21.8081 2.68636 22.6804C2.68196 23.5528 2.85052 24.4173 3.18232 25.2241C3.51411 26.0308 4.00254 26.7638 4.61937 27.3807C5.23621 27.9975 5.9692 28.4859 6.77598 28.8177C7.58275 29.1495 8.44729 29.3181 9.31961 29.3137C10.1919 29.3093 11.0547 29.132 11.8581 28.7921C12.6615 28.4521 13.3895 27.9563 14.0001 27.3333Z" stroke="#F59E0B" stroke-width="2" stroke-linecap="round" stroke-linejoin="round"/>
<path d="M11.3333 11.3334L20.6666 20.6667" stroke="#F59E0B" stroke-width="2" stroke-linecap="round" stroke-linejoin="round"/>
</svg>
