<svg width="52" height="52" viewBox="0 0 52 52" fill="none" xmlns="http://www.w3.org/2000/svg">
<g filter="url(#filter0_d_19_184)">
<path d="M2 25C2 11.7452 12.7452 1 26 1C39.2548 1 50 11.7452 50 25C50 38.2548 39.2548 49 26 49C12.7452 49 2 38.2548 2 25Z" fill="#ECFDF5"/>
<path d="M26 1.5C38.9787 1.5 49.5 12.0213 49.5 25C49.5 37.9787 38.9787 48.5 26 48.5C13.0213 48.5 2.5 37.9787 2.5 25C2.5 12.0213 13.0213 1.5 26 1.5Z" stroke="#10B981"/>
<path d="M34 19L23 30L18 25" stroke="#10B981" stroke-width="2" stroke-linecap="round" stroke-linejoin="round"/>
</g>
<defs>
<filter id="filter0_d_19_184" x="0" y="0" width="52" height="52" filterUnits="userSpaceOnUse" color-interpolation-filters="sRGB">
<feFlood flood-opacity="0" result="BackgroundImageFix"/>
<feColorMatrix in="SourceAlpha" type="matrix" values="0 0 0 0 0 0 0 0 0 0 0 0 0 0 0 0 0 0 127 0" result="hardAlpha"/>
<feOffset dy="1"/>
<feGaussianBlur stdDeviation="1"/>
<feColorMatrix type="matrix" values="0 0 0 0 0 0 0 0 0 0 0 0 0 0 0 0 0 0 0.05 0"/>
<feBlend mode="normal" in2="BackgroundImageFix" result="effect1_dropShadow_19_184"/>
<feBlend mode="normal" in="SourceGraphic" in2="effect1_dropShadow_19_184" result="shape"/>
</filter>
</defs>
</svg>
