<svg width="48" height="48" viewBox="0 0 48 48" fill="none" xmlns="http://www.w3.org/2000/svg">
<path d="M0 24C0 10.7452 10.7452 0 24 0C37.2548 0 48 10.7452 48 24C48 37.2548 37.2548 48 24 48C10.7452 48 0 37.2548 0 24Z" fill="#FFFBEB"/>
<path d="M33.2749 12.2H15.2749C14.4793 12.2 13.7162 12.516 13.1536 13.0786C12.591 13.6412 12.2749 14.4043 12.2749 15.2V33.2C12.2749 33.9956 12.591 34.7587 13.1536 35.3213C13.7162 35.8839 14.4793 36.2 15.2749 36.2H33.2749C34.0706 36.2 34.8336 35.8839 35.3962 35.3213C35.9588 34.7587 36.2749 33.9956 36.2749 33.2V15.2C36.2749 14.4043 35.9588 13.6412 35.3962 13.0786C34.8336 12.516 34.0706 12.2 33.2749 12.2ZM13.7749 17.9855C13.7749 17.276 14.4469 16.7 15.2749 16.7H33.2749C34.1029 16.7 34.7749 17.276 34.7749 17.9855V33.4145C34.7749 34.124 34.1029 34.7 33.2749 34.7H15.2749C14.4469 34.7 13.7749 34.124 13.7749 33.4145V17.9855Z" fill="#F59E0B"/>
<path d="M30.2749 22.7C30.6727 22.7 31.0543 22.5419 31.3356 22.2606C31.6169 21.9793 31.7749 21.5978 31.7749 21.2C31.7749 20.8021 31.6169 20.4206 31.3356 20.1393C31.0543 19.858 30.6727 19.7 30.2749 19.7C29.8771 19.7 29.4955 19.858 29.2142 20.1393C28.9329 20.4206 28.7749 20.8021 28.7749 21.2C28.7749 21.5978 28.9329 21.9793 29.2142 22.2606C29.4955 22.5419 29.8771 22.7 30.2749 22.7Z" fill="#F59E0B"/>
</svg>
