<svg width="32" height="32" viewBox="0 0 32 32" fill="none" xmlns="http://www.w3.org/2000/svg">
<path d="M16 2.66663V5.33329" stroke="#F59E0B" stroke-width="2" stroke-linecap="round" stroke-linejoin="round"/>
<path d="M6.57324 6.57336L8.45324 8.45336" stroke="#F59E0B" stroke-width="2" stroke-linecap="round" stroke-linejoin="round"/>
<path d="M26.6667 16H29.3334" stroke="#F59E0B" stroke-width="2" stroke-linecap="round" stroke-linejoin="round"/>
<path d="M25.4266 6.57336L23.5466 8.45336" stroke="#F59E0B" stroke-width="2" stroke-linecap="round" stroke-linejoin="round"/>
<path d="M21.2625 16.8667C21.4266 15.8727 21.3058 14.8526 20.9141 13.9244C20.5224 12.9962 19.8758 12.1979 19.0492 11.622C18.2226 11.0461 17.2498 10.7161 16.2434 10.6702C15.237 10.6243 14.2381 10.8644 13.3625 11.3627" stroke="#F59E0B" stroke-width="2" stroke-linecap="round" stroke-linejoin="round"/>
<path d="M17.3333 29.3333H9.33328C8.07191 29.3331 6.83649 28.975 5.77051 28.3006C4.70453 27.6263 3.85174 26.6633 3.31118 25.5237C2.77062 24.384 2.56448 23.1143 2.71669 21.8622C2.8689 20.61 3.37323 19.4267 4.17109 18.4498C4.96895 17.4728 6.02761 16.7422 7.22411 16.3429C8.4206 15.9436 9.70584 15.8919 10.9305 16.1938C12.1552 16.4958 13.2691 17.139 14.1429 18.0487C15.0166 18.9585 15.6143 20.0974 15.8666 21.3333H17.3333C18.3941 21.3333 19.4116 21.7548 20.1617 22.5049C20.9119 23.2551 21.3333 24.2725 21.3333 25.3333C21.3333 26.3942 20.9119 27.4116 20.1617 28.1618C19.4116 28.9119 18.3941 29.3333 17.3333 29.3333Z" stroke="#F59E0B" stroke-width="2" stroke-linecap="round" stroke-linejoin="round"/>
</svg>
