<svg width="52" height="52" viewBox="0 0 52 52" fill="none" xmlns="http://www.w3.org/2000/svg">
<g filter="url(#filter0_d_19_196)">
<path d="M2 25C2 11.7452 12.7452 1 26 1C39.2548 1 50 11.7452 50 25C50 38.2548 39.2548 49 26 49C12.7452 49 2 38.2548 2 25Z" fill="#F5F5F4"/>
<path d="M26 1.5C38.9787 1.5 49.5 12.0213 49.5 25C49.5 37.9787 38.9787 48.5 26 48.5C13.0213 48.5 2.5 37.9787 2.5 25C2.5 12.0213 13.0213 1.5 26 1.5Z" stroke="#D6D3D1"/>
<path d="M26.2131 31.5931C25.3357 31.5931 24.5107 31.4281 23.7379 31.0981C22.9692 30.768 22.2911 30.3112 21.7035 29.7277C21.1199 29.1401 20.6611 28.4619 20.3271 27.6932C19.997 26.9245 19.834 26.0995 19.8381 25.2181C19.8421 24.3367 20.0091 23.5116 20.3391 22.7429C20.6732 21.9742 21.132 21.2981 21.7156 20.7145C22.2991 20.1269 22.9753 19.6681 23.744 19.3381C24.5127 19.0081 25.3357 18.8431 26.2131 18.8431C27.0945 18.8431 27.9195 19.0081 28.6882 19.3381C29.4609 19.6681 30.1371 20.1269 30.7166 20.7145C31.3002 21.2981 31.757 21.9742 32.087 22.7429C32.417 23.5116 32.584 24.3367 32.5881 25.2181C32.5921 26.0995 32.4291 26.9245 32.0991 27.6932C31.7691 28.4619 31.3123 29.1401 30.7287 29.7277C30.1451 30.3112 29.467 30.768 28.6942 31.0981C27.9215 31.4281 27.0945 31.5931 26.2131 31.5931ZM26.2131 29.5828C26.8208 29.5828 27.3883 29.4701 27.9155 29.2447C28.4467 29.0193 28.9116 28.7074 29.31 28.309C29.7085 27.9065 30.0204 27.4437 30.2457 26.9205C30.4711 26.3933 30.5818 25.8278 30.5778 25.2241C30.5778 24.6164 30.4631 24.0489 30.2337 23.5217C30.0083 22.9905 29.6964 22.5256 29.2979 22.1272C28.8995 21.7287 28.4367 21.4168 27.9094 21.1915C27.3822 20.9661 26.8168 20.8534 26.2131 20.8534C25.6134 20.8534 25.05 20.9661 24.5227 21.1915C23.9995 21.4168 23.5367 21.7307 23.1342 22.1332C22.7358 22.5316 22.4219 22.9965 22.1925 23.5277C21.9631 24.055 21.8484 24.6204 21.8484 25.2241C21.8443 25.8238 21.955 26.3872 22.1804 26.9145C22.4098 27.4377 22.7237 27.9005 23.1222 28.303C23.5246 28.7014 23.9895 29.0153 24.5167 29.2447C25.0439 29.4701 25.6094 29.5828 26.2131 29.5828Z" fill="#A8A29E"/>
</g>
<defs>
<filter id="filter0_d_19_196" x="0" y="0" width="52" height="52" filterUnits="userSpaceOnUse" color-interpolation-filters="sRGB">
<feFlood flood-opacity="0" result="BackgroundImageFix"/>
<feColorMatrix in="SourceAlpha" type="matrix" values="0 0 0 0 0 0 0 0 0 0 0 0 0 0 0 0 0 0 127 0" result="hardAlpha"/>
<feOffset dy="1"/>
<feGaussianBlur stdDeviation="1"/>
<feColorMatrix type="matrix" values="0 0 0 0 0 0 0 0 0 0 0 0 0 0 0 0 0 0 0.05 0"/>
<feBlend mode="normal" in2="BackgroundImageFix" result="effect1_dropShadow_19_196"/>
<feBlend mode="normal" in="SourceGraphic" in2="effect1_dropShadow_19_196" result="shape"/>
</filter>
</defs>
</svg>
