<svg width="48" height="48" viewBox="0 0 48 48" fill="none" xmlns="http://www.w3.org/2000/svg">
<path d="M0 24C0 10.7452 10.7452 0 24 0C37.2548 0 48 10.7452 48 24C48 37.2548 37.2548 48 24 48C10.7452 48 0 37.2548 0 24Z" fill="#ECFDF5"/>
<path d="M26 16V26.54C26.7626 26.9803 27.3586 27.6599 27.6955 28.4734C28.0325 29.2869 28.0916 30.1888 27.8637 31.0394C27.6358 31.8899 27.1336 32.6415 26.435 33.1775C25.7365 33.7136 24.8805 34.0041 24 34.0041C23.1195 34.0041 22.2635 33.7136 21.565 33.1775C20.8664 32.6415 20.3642 31.8899 20.1363 31.0394C19.9084 30.1888 19.9675 29.2869 20.3045 28.4734C20.6415 27.6599 21.2374 26.9803 22 26.54V16C22 15.4696 22.2107 14.9609 22.5858 14.5858C22.9609 14.2107 23.4696 14 24 14C24.5304 14 25.0391 14.2107 25.4142 14.5858C25.7893 14.9609 26 15.4696 26 16Z" stroke="#059669" stroke-width="2" stroke-linecap="round" stroke-linejoin="round"/>
</svg>
